<?xml version="1.0" encoding="UTF-8" standalone="no"?>
<svg
   xmlns:dc="http://purl.org/dc/elements/1.1/"
   xmlns:cc="http://creativecommons.org/ns#"
   xmlns:rdf="http://www.w3.org/1999/02/22-rdf-syntax-ns#"
   xmlns:svg="http://www.w3.org/2000/svg"
   xmlns="http://www.w3.org/2000/svg"
   xmlns:xlink="http://www.w3.org/1999/xlink"
   xmlns:sodipodi="http://sodipodi.sourceforge.net/DTD/sodipodi-0.dtd"
   xmlns:inkscape="http://www.inkscape.org/namespaces/inkscape"
   width="480"
   height="480"
   viewBox="0 0 127 127"
   version="1.1"
   id="svg8"
   inkscape:version="1.0.1 (3bc2e813f5, 2020-09-07)"
   sodipodi:docname="dragon-logo.svg">
  <defs
     id="defs2">
    <linearGradient
       inkscape:collect="always"
       id="linearGradient1608">
      <stop
         style="stop-color:#a42524;stop-opacity:1;"
         offset="0"
         id="stop1604" />
      <stop
         style="stop-color:#a42524;stop-opacity:0;"
         offset="1"
         id="stop1606" />
    </linearGradient>
    <linearGradient
       inkscape:collect="always"
       xlink:href="#linearGradient1608"
       id="linearGradient1612"
       x1="63.952194"
       y1="14.240932"
       x2="64.749825"
       y2="14.240932"
       gradientUnits="userSpaceOnUse"
       gradientTransform="matrix(1.1658611,0,0,0.8556033,-10.736548,8.9897188)" />
  </defs>
  <sodipodi:namedview
     id="base"
     pagecolor="#ffffff"
     bordercolor="#666666"
     borderopacity="1.0"
     inkscape:pageopacity="0.0"
     inkscape:pageshadow="2"
     inkscape:zoom="0.7"
     inkscape:cx="-171.69427"
     inkscape:cy="54.196239"
     inkscape:document-units="mm"
     inkscape:current-layer="layer1"
     inkscape:document-rotation="0"
     showgrid="false"
     units="px"
     width="47px"
     inkscape:window-width="1920"
     inkscape:window-height="1017"
     inkscape:window-x="-8"
     inkscape:window-y="-8"
     inkscape:window-maximized="1"
     showguides="true"
     inkscape:guide-bbox="true">
    <sodipodi:guide
       position="48.333705,98.415551"
       orientation="0,-1"
       id="guide1594" />
  </sodipodi:namedview>
  <metadata
     id="metadata5">
    <rdf:RDF>
      <cc:Work
         rdf:about="">
        <dc:format>image/svg+xml</dc:format>
        <dc:type
           rdf:resource="http://purl.org/dc/dcmitype/StillImage" />
        <dc:title></dc:title>
      </cc:Work>
    </rdf:RDF>
  </metadata>
  <g
     inkscape:label="Layer 1"
     inkscape:groupmode="layer"
     id="layer1">
    <path
       style="fill:#fcfff4;fill-opacity:1;stroke:#000000;stroke-width:0.0150613;stroke-linecap:butt;stroke-linejoin:miter;stroke-miterlimit:4;stroke-dasharray:none;stroke-opacity:1"
       d="m 63.768308,124.56709 c 0.806626,-7.19292 2.368054,-12.06042 2.196833,-9.10731 -0.23803,4.10546 0.60207,9.30437 0.60207,9.30437 z"
       id="path1482"
       sodipodi:nodetypes="cscc" />
    <path
       style="fill:#000000;fill-opacity:1;stroke:#ca2524;stroke-width:2.3;stroke-linecap:round;stroke-linejoin:round;stroke-miterlimit:4;stroke-dasharray:none;stroke-opacity:1"
       d="m 97.028235,66.523701 -65.39383,0.226838 c 0,0 25.633226,68.694941 36.45059,57.576101 10.969144,-11.27484 28.94324,-57.802939 28.94324,-57.802939 z"
       id="path1408"
       sodipodi:nodetypes="ccsc" />
    <path
       style="fill:#fcfff4;fill-opacity:1;stroke:#000000;stroke-width:0.0173012;stroke-linecap:butt;stroke-linejoin:miter;stroke-miterlimit:4;stroke-dasharray:none;stroke-opacity:1"
       d="m 39.023712,67.840565 c -7.41908,9.961757 -11.218941,5.249977 -7.65193,7.596538 3.568563,2.347581 8.857152,-4.527775 8.857152,-4.527775 z"
       id="path1438"
       sodipodi:nodetypes="cscc" />
    <path
       style="fill:#ca2524;fill-opacity:1;stroke:none;stroke-width:0.234;stroke-linecap:butt;stroke-linejoin:miter;stroke-miterlimit:4;stroke-dasharray:none;stroke-opacity:1"
       d="m 90.993386,65.24981 -53.256552,0.191043 c 0,0 20.875624,57.854787 29.685254,48.490517 8.93324,-9.49566 23.571298,-48.68156 23.571298,-48.68156 z"
       id="path1406"
       sodipodi:nodetypes="ccsc" />
    <path
       style="fill:#fcfff4;fill-opacity:1;stroke:#000000;stroke-width:0.0167364;stroke-linecap:butt;stroke-linejoin:miter;stroke-miterlimit:4;stroke-dasharray:none;stroke-opacity:1"
       d="m 38.001825,80.082873 c 7.54317,-9.196454 11.285521,-4.726526 7.746879,-6.980163 -3.54018,-2.254617 -8.914441,4.089784 -8.914441,4.089784 z"
       id="path1442"
       sodipodi:nodetypes="cscc" />
    <path
       style="fill:#fcfff4;fill-opacity:1;stroke:#000000;stroke-width:0.0173012;stroke-linecap:butt;stroke-linejoin:miter;stroke-miterlimit:4;stroke-dasharray:none;stroke-opacity:1"
       d="m 42.765485,77.92999 c -7.41908,9.961757 -11.218941,5.249977 -7.65193,7.596538 3.568563,2.347581 8.857152,-4.527775 8.857152,-4.527775 z"
       id="path1444"
       sodipodi:nodetypes="cscc" />
    <path
       style="fill:#fcfff4;fill-opacity:1;stroke:#000000;stroke-width:0.0167364;stroke-linecap:butt;stroke-linejoin:miter;stroke-miterlimit:4;stroke-dasharray:none;stroke-opacity:1"
       d="m 42.21132,89.170037 c 7.54317,-9.196454 11.285521,-4.726526 7.746879,-6.980163 -3.54018,-2.254617 -8.914441,4.089784 -8.914441,4.089784 z"
       id="path1446"
       sodipodi:nodetypes="cscc" />
    <path
       style="fill:#fcfff4;fill-opacity:1;stroke:#000000;stroke-width:0.0173012;stroke-linecap:butt;stroke-linejoin:miter;stroke-miterlimit:4;stroke-dasharray:none;stroke-opacity:1"
       d="m 46.554745,87.08316 c -6.879979,10.34143 -10.924528,5.837942 -7.238017,7.991904 3.688115,2.154893 8.604393,-4.991423 8.604393,-4.991423 z"
       id="path1448"
       sodipodi:nodetypes="cscc" />
    <path
       style="fill:#fcfff4;fill-opacity:1;stroke:#000000;stroke-width:0.0167364;stroke-linecap:butt;stroke-linejoin:miter;stroke-miterlimit:4;stroke-dasharray:none;stroke-opacity:1"
       d="m 46.186634,97.758581 c 7.134061,-9.517315 11.068181,-5.215206 7.434431,-7.312044 -3.635328,-2.09775 -8.727192,4.475455 -8.727192,4.475455 z"
       id="path1450"
       sodipodi:nodetypes="cscc" />
    <path
       style="fill:#fcfff4;fill-opacity:1;stroke:#000000;stroke-width:0.0173012;stroke-linecap:butt;stroke-linejoin:miter;stroke-miterlimit:4;stroke-dasharray:none;stroke-opacity:1"
       d="m 50.318764,95.330233 c -6.771365,10.412877 -10.862828,5.951967 -7.153975,8.067227 3.710467,2.11617 8.55168,-5.081217 8.55168,-5.081217 z"
       id="path1452"
       sodipodi:nodetypes="cscc" />
    <path
       style="fill:#fcfff4;fill-opacity:1;stroke:#000000;stroke-width:0.0167364;stroke-linecap:butt;stroke-linejoin:miter;stroke-miterlimit:4;stroke-dasharray:none;stroke-opacity:1"
       d="m 50.640982,106.39159 c 6.379423,-10.03878 10.633373,-6.05264 6.848844,-7.863211 -3.786176,-1.811374 -8.356354,5.134671 -8.356354,5.134671 z"
       id="path1454"
       sodipodi:nodetypes="cscc" />
    <path
       style="fill:#fcfff4;fill-opacity:1;stroke:#000000;stroke-width:0.0173012;stroke-linecap:butt;stroke-linejoin:miter;stroke-miterlimit:4;stroke-dasharray:none;stroke-opacity:1"
       d="m 54.83749,103.90983 c -5.58489,11.09452 -10.142213,7.11073 -6.223193,8.80519 3.920725,1.6952 7.940869,-5.99104 7.940869,-5.99104 z"
       id="path1456"
       sodipodi:nodetypes="cscc" />
    <path
       style="fill:#fcfff4;fill-opacity:1;stroke:#000000;stroke-width:0.0167364;stroke-linecap:butt;stroke-linejoin:miter;stroke-miterlimit:4;stroke-dasharray:none;stroke-opacity:1"
       d="m 55.844751,115.2715 c 5.522023,-10.53478 10.092889,-6.91641 6.170833,-8.40581 -3.923761,-1.49006 -7.900144,5.81216 -7.900144,5.81216 z"
       id="path1458"
       sodipodi:nodetypes="cscc" />
    <path
       style="fill:#fcfff4;fill-opacity:1;stroke:#000000;stroke-width:0.0167364;stroke-linecap:butt;stroke-linejoin:miter;stroke-miterlimit:4;stroke-dasharray:none;stroke-opacity:1"
       d="m 60.432646,111.82835 c -3.651215,11.32003 -8.770551,8.53116 -4.652421,9.33231 4.119923,0.80149 6.797384,-7.0703 6.797384,-7.0703 z"
       id="path1460"
       sodipodi:nodetypes="cscc" />
    <path
       style="fill:#fcfff4;fill-opacity:1;stroke:#000000;stroke-width:0.0167364;stroke-linecap:butt;stroke-linejoin:miter;stroke-miterlimit:4;stroke-dasharray:none;stroke-opacity:1"
       d="m 90.631872,79.371295 c -7.425717,-9.291552 -11.224558,-4.869537 -7.657567,-7.078023 3.56854,-2.209458 8.861756,4.202705 8.861756,4.202705 z"
       id="path1462"
       sodipodi:nodetypes="cscc" />
    <path
       style="fill:#fcfff4;fill-opacity:1;stroke:#000000;stroke-width:0.0173012;stroke-linecap:butt;stroke-linejoin:miter;stroke-miterlimit:4;stroke-dasharray:none;stroke-opacity:1"
       d="m 89.993825,67.799213 c 6.818459,10.3821 10.889675,5.902706 7.190441,8.034742 -3.700844,2.132965 -8.574606,-5.042429 -8.574606,-5.042429 z"
       id="path1464"
       sodipodi:nodetypes="cscc" />
    <path
       style="fill:#fcfff4;fill-opacity:1;stroke:#000000;stroke-width:0.0167364;stroke-linecap:butt;stroke-linejoin:miter;stroke-miterlimit:4;stroke-dasharray:none;stroke-opacity:1"
       d="M 86.422377,89.059815 C 78.99666,79.768263 75.197819,84.190278 78.76481,81.981792 c 3.56854,-2.209458 8.861756,4.202705 8.861756,4.202705 z"
       id="path1466"
       sodipodi:nodetypes="cscc" />
    <path
       style="fill:#fcfff4;fill-opacity:1;stroke:#000000;stroke-width:0.0173012;stroke-linecap:butt;stroke-linejoin:miter;stroke-miterlimit:4;stroke-dasharray:none;stroke-opacity:1"
       d="m 86.118417,77.621368 c 6.818459,10.3821 10.889675,5.902706 7.190441,8.034742 -3.700844,2.132965 -8.574606,-5.042429 -8.574606,-5.042429 z"
       id="path1468"
       sodipodi:nodetypes="cscc" />
    <path
       style="fill:#fcfff4;fill-opacity:1;stroke:#000000;stroke-width:0.0167364;stroke-linecap:butt;stroke-linejoin:miter;stroke-miterlimit:4;stroke-dasharray:none;stroke-opacity:1"
       d="m 82.346516,98.080161 c -7.425717,-9.291552 -11.224558,-4.869537 -7.657567,-7.078023 3.56854,-2.209458 8.861756,4.202705 8.861756,4.202705 z"
       id="path1470"
       sodipodi:nodetypes="cscc" />
    <path
       style="fill:#fcfff4;fill-opacity:1;stroke:#000000;stroke-width:0.0173012;stroke-linecap:butt;stroke-linejoin:miter;stroke-miterlimit:4;stroke-dasharray:none;stroke-opacity:1"
       d="m 82.176191,86.775349 c 6.818459,10.3821 10.889675,5.902706 7.190441,8.034742 -3.700844,2.132965 -8.574606,-5.042429 -8.574606,-5.042429 z"
       id="path1472"
       sodipodi:nodetypes="cscc" />
    <path
       style="fill:#fcfff4;fill-opacity:1;stroke:#000000;stroke-width:0.0167364;stroke-linecap:butt;stroke-linejoin:miter;stroke-miterlimit:4;stroke-dasharray:none;stroke-opacity:1"
       d="m 77.578682,107.65392 c -6.876214,-9.70526 -10.924312,-5.51022 -7.235627,-7.50884 3.690289,-1.999483 8.604007,4.70793 8.604007,4.70793 z"
       id="path1474"
       sodipodi:nodetypes="cscc" />
    <path
       style="fill:#fcfff4;fill-opacity:1;stroke:#000000;stroke-width:0.0173012;stroke-linecap:butt;stroke-linejoin:miter;stroke-miterlimit:4;stroke-dasharray:none;stroke-opacity:1"
       d="m 77.899879,96.062965 c 6.818459,10.382105 10.889675,5.902705 7.190441,8.034745 -3.700844,2.13296 -8.574606,-5.042432 -8.574606,-5.042432 z"
       id="path1476"
       sodipodi:nodetypes="cscc" />
    <path
       style="fill:#fcfff4;fill-opacity:1;stroke:#000000;stroke-width:0.0167364;stroke-linecap:butt;stroke-linejoin:miter;stroke-miterlimit:4;stroke-dasharray:none;stroke-opacity:1"
       d="m 71.807858,117.50583 c -5.374883,-10.61061 -9.995662,-7.05619 -6.053258,-8.49087 3.944119,-1.43531 7.818495,5.92154 7.818495,5.92154 z"
       id="path1478"
       sodipodi:nodetypes="cscc" />
    <path
       style="fill:#fcfff4;fill-opacity:1;stroke:#000000;stroke-width:0.0173012;stroke-linecap:butt;stroke-linejoin:miter;stroke-miterlimit:4;stroke-dasharray:none;stroke-opacity:1"
       d="m 72.933048,105.5888 c 5.892853,10.93407 10.337028,6.82443 6.466909,8.62778 -3.871803,1.80414 -8.105243,-5.76672 -8.105243,-5.76672 z"
       id="path1480"
       sodipodi:nodetypes="cscc" />
    <path
       style="fill:#fcfff4;fill-opacity:1;stroke:#000000;stroke-width:0.0135004;stroke-linecap:butt;stroke-linejoin:miter;stroke-miterlimit:4;stroke-dasharray:none;stroke-opacity:1"
       d="m 67.784386,123.1012 c -1.233965,-11.34248 -4.855926,-8.70719 -2.088546,-9.39422 2.768585,-0.68734 3.716981,7.20371 3.716981,7.20371 z"
       id="path1484"
       sodipodi:nodetypes="cscc" />
    <path
       style="fill:#fcfff4;fill-opacity:1;stroke:#000000;stroke-width:0.0104258;stroke-linecap:butt;stroke-linejoin:miter;stroke-miterlimit:4;stroke-dasharray:none;stroke-opacity:1"
       d="m 62.458027,123.16266 c 1.415718,-9.92225 3.928826,-7.40574 2.059378,-7.88337 -1.870277,-0.47782 -3.357132,6.77254 -3.357132,6.77254 z"
       id="path1486"
       sodipodi:nodetypes="cscc"
       inkscape:transform-center-x="-0.55094755"
       inkscape:transform-center-y="-0.72917313" />
    <path
       style="fill:#ca2524;fill-opacity:1;stroke:#000000;stroke-width:0;stroke-linecap:round;stroke-linejoin:round;stroke-miterlimit:4;stroke-dasharray:none;stroke-opacity:1"
       d="M 30.67687,67.279705 6.7074658,19.206956 c -0.014896,-0.06585 -0.4966399,-0.931222 -0.6052664,-1.514097 -0.021887,-0.117443 0.063413,-1.219592 0.071562,-1.225396 0.00682,-0.0075 1.8906877,-0.01435 2.0780675,-0.02601 1.3042634,-0.08111 4.5583176,-0.03694 4.6058126,-0.04316 l 105.211578,0.03341 -19.968786,50.621162 z"
       id="path1496"
       sodipodi:nodetypes="ccscscccc" />
    <ellipse
       style="fill:#d8ae25;fill-opacity:1;stroke:none;stroke-width:0;stroke-linecap:round;stroke-linejoin:round;stroke-miterlimit:4;stroke-dasharray:none;stroke-opacity:1"
       id="path1502"
       cx="5.6853375"
       cy="61.008411"
       rx="8.5520582"
       ry="18.838799"
       transform="matrix(0.56540179,-0.82481563,0.55136959,0.8342611,0,0)" />
    <ellipse
       style="fill:#d8ae25;fill-opacity:1;stroke:none;stroke-width:0;stroke-linecap:round;stroke-linejoin:round;stroke-miterlimit:4;stroke-dasharray:none;stroke-opacity:1"
       id="ellipse1504"
       cx="-109.72679"
       cy="-52.417389"
       rx="8.5520582"
       ry="18.838799"
       transform="matrix(-0.56540179,-0.82481563,-0.55136959,0.8342611,0,0)" />
    <ellipse
       style="fill:#41ae25;fill-opacity:1;stroke:none;stroke-width:0;stroke-linecap:round;stroke-linejoin:round;stroke-miterlimit:4;stroke-dasharray:none;stroke-opacity:1"
       id="path1506"
       cx="-50.647366"
       cy="38.37608"
       rx="5.9467473"
       ry="2.5056522"
       transform="rotate(-90.211902)" />
    <ellipse
       style="fill:#41ae25;fill-opacity:1;stroke:none;stroke-width:0;stroke-linecap:round;stroke-linejoin:round;stroke-miterlimit:4;stroke-dasharray:none;stroke-opacity:1"
       id="ellipse1508"
       cx="-51.237492"
       cy="88.086372"
       rx="5.9467473"
       ry="2.5056522"
       transform="rotate(-90.211902)" />
    <ellipse
       style="fill:#410025;fill-opacity:1;stroke:none;stroke-width:0;stroke-linecap:round;stroke-linejoin:round;stroke-miterlimit:4;stroke-dasharray:none;stroke-opacity:1"
       id="path1512"
       cx="81.250496"
       cy="61.406967"
       rx="0.26726952"
       ry="2.0045214"
       transform="rotate(-6.9398121)" />
    <ellipse
       style="fill:#410025;fill-opacity:1;stroke:none;stroke-width:0;stroke-linecap:round;stroke-linejoin:round;stroke-miterlimit:4;stroke-dasharray:none;stroke-opacity:1"
       id="ellipse1514"
       cx="-44.20417"
       cy="45.665649"
       rx="0.26726952"
       ry="2.0045214"
       transform="matrix(-0.99267362,-0.12082663,-0.12082663,0.99267362,0,0)" />
    <path
       style="fill:none;stroke:#000000;stroke-width:1.46529;stroke-linecap:butt;stroke-linejoin:miter;stroke-miterlimit:4;stroke-dasharray:none;stroke-opacity:1"
       d="M 31.427499,25.226605 C 54.413219,37.95255 57.57639,60.677452 54.413219,37.95255"
       id="path1516" />
    <path
       style="fill:none;stroke:#000000;stroke-width:1.46529;stroke-linecap:butt;stroke-linejoin:miter;stroke-miterlimit:4;stroke-dasharray:none;stroke-opacity:1"
       d="M 97.603694,25.226605 C 74.617974,37.95255 71.454803,60.677452 74.617974,37.95255"
       id="path1518" />
    <ellipse
       style="fill:#410025;fill-opacity:1;stroke:none;stroke-width:1.265;stroke-linecap:round;stroke-linejoin:round;stroke-miterlimit:4;stroke-dasharray:none;stroke-opacity:1"
       id="path1520"
       cx="62.177082"
       cy="96.062645"
       rx="1.1339285"
       ry="4.6302085" />
    <ellipse
       style="fill:#410025;fill-opacity:1;stroke:none;stroke-width:1.265;stroke-linecap:round;stroke-linejoin:round;stroke-miterlimit:4;stroke-dasharray:none;stroke-opacity:1"
       id="ellipse1522"
       cx="66.145828"
       cy="96.062645"
       rx="1.1339285"
       ry="4.6302085" />
    <ellipse
       style="fill:#ca2524;fill-opacity:1;stroke:none;stroke-width:1.52506;stroke-linecap:round;stroke-linejoin:round;stroke-miterlimit:4;stroke-dasharray:none;stroke-opacity:1"
       id="path1530"
       cx="12.160764"
       cy="15.367998"
       rx="12.294398"
       ry="15.100728" />
    <ellipse
       style="fill:#ca2524;fill-opacity:1;stroke:none;stroke-width:1.52506;stroke-linecap:round;stroke-linejoin:round;stroke-miterlimit:4;stroke-dasharray:none;stroke-opacity:1"
       id="ellipse1532"
       cx="114.39136"
       cy="15.367998"
       rx="12.294398"
       ry="15.100728" />
    <path
       id="rect1534"
       style="fill:#ca2524;fill-opacity:1;stroke:none;stroke-width:4.81221;stroke-linecap:round;stroke-linejoin:round;stroke-miterlimit:4;stroke-dasharray:none;stroke-opacity:1"
       d="M 34.386719 0.12109375 A 120 117.14285 0 0 1 0.50585938 28.273438 L 0.50585938 67.734375 C 0.50585937 68.54381 1.1573632 69.195312 1.9667969 69.195312 L 478.36133 69.195312 C 479.17075 69.195312 479.82227 68.54381 479.82227 67.734375 L 479.82227 29.128906 A 120 117.14285 0 0 1 447.26367 0.12109375 L 34.386719 0.12109375 z "
       transform="scale(0.26458333)" />
    <ellipse
       style="fill:#a42524;fill-opacity:1;stroke:none;stroke-width:1.67013;stroke-linecap:round;stroke-linejoin:round;stroke-miterlimit:4;stroke-dasharray:none;stroke-opacity:1"
       id="path1538"
       cx="0.14160781"
       cy="20.454103"
       rx="5.829792"
       ry="11.179672"
       transform="matrix(0.94357109,-0.33117006,0.40586389,0.91393353,0,0)" />
    <ellipse
       style="fill:#a42524;fill-opacity:1;stroke:none;stroke-width:1.265;stroke-linecap:round;stroke-linejoin:round;stroke-miterlimit:4;stroke-dasharray:none;stroke-opacity:1"
       id="path1542"
       cx="-99.596718"
       cy="-67.846725"
       rx="3.96875"
       ry="2.0788691" />
    <ellipse
       style="fill:#a42524;fill-opacity:1;stroke:none;stroke-width:1.67013;stroke-linecap:round;stroke-linejoin:round;stroke-miterlimit:4;stroke-dasharray:none;stroke-opacity:1"
       id="ellipse1584"
       cx="-115.69164"
       cy="-21.811304"
       rx="5.829792"
       ry="11.179672"
       transform="matrix(-0.94357109,-0.33117006,-0.40586389,0.91393353,0,0)" />
    <path
       style="fill:none;stroke:url(#linearGradient1612);stroke-width:12.3896;stroke-linecap:round;stroke-linejoin:miter;stroke-miterlimit:4;stroke-dasharray:none;stroke-opacity:1"
       d="M 64.342003,8.9019465 64.233577,33.446667"
       id="path1602" />
    <path
       style="fill:none;stroke:#d8ae25;stroke-width:2.51848;stroke-linecap:round;stroke-linejoin:round;stroke-miterlimit:4;stroke-dasharray:none;stroke-opacity:1"
       d="M 54.402276,6.9934235 C 64.200655,2.094286 64.200655,2.094286 64.200655,2.094286 l 8.82875,4.8991375"
       id="path1596"
       sodipodi:nodetypes="ccc" />
    <path
       style="fill:none;stroke:#d8ae25;stroke-width:2.51848;stroke-linecap:round;stroke-linejoin:round;stroke-miterlimit:4;stroke-dasharray:none;stroke-opacity:1"
       d="M 54.535911,13.808796 C 64.33429,8.909659 64.33429,8.909659 64.33429,8.909659 l 8.82875,4.899137"
       id="path1598"
       sodipodi:nodetypes="ccc" />
    <path
       style="fill:none;stroke:#d8ae25;stroke-width:2.51848;stroke-linecap:round;stroke-linejoin:round;stroke-miterlimit:4;stroke-dasharray:none;stroke-opacity:1"
       d="m 54.402276,20.624169 c 9.798379,-4.899137 9.798379,-4.899137 9.798379,-4.899137 l 8.82875,4.899137"
       id="path1600"
       sodipodi:nodetypes="ccc" />
  </g>
</svg>
